<svg xmlns="http://www.w3.org/2000/svg" viewBox="0 0 150 27.9"><defs><style>.cls-1{fill:#fff;}</style></defs><g id="Layer_2" data-name="Layer 2"><g id="Layer_1-2" data-name="Layer 1"><g id="Layer_2-2" data-name="Layer 2"><g id="Layer_1-2-2" data-name="Layer 1-2"><g id="Layer_2-2-2" data-name="Layer 2-2"><g id="Layer_1-2-2-2" data-name="Layer 1-2-2"><path class="cls-1" d="M25.5,0H15.4L13.8,3.5l4,.5L16.4,7.2l5.7-.6-4.7,7.1,2.4,3.1-1.2,2.7-.2.4,7.8,7.9a1.27,1.27,0,0,1-.6.1H21.8l-3.5-3.6-1.4-1.4-.1-.1-1.5-1.6-.4-.4,1.9-3.6-2.2-3.4,3.2-4.5L13,9.8l2-4-3.9-.7L13.4,0H2.4A2.35,2.35,0,0,0,0,2.3H0V25.5a2.43,2.43,0,0,0,2.4,2.4H25.6A2.43,2.43,0,0,0,28,25.5V2.4A2.52,2.52,0,0,0,25.5,0Z"/></g></g><g id="Layer_2-3" data-name="Layer 2-3"><g id="Layer_1-2-3" data-name="Layer 1-2-3"><path class="cls-1" d="M65.8,1.7v.7a3.34,3.34,0,0,0-2.4,1.4A16.84,16.84,0,0,0,61.2,8L52.8,26.5h-.6L43.9,7.2a22.19,22.19,0,0,0-2-4.1A2.73,2.73,0,0,0,40,2.3V1.7H51.6v.7h-.4a4.31,4.31,0,0,0-2.2.4.91.91,0,0,0-.4.8,2.35,2.35,0,0,0,.2.8c.1.3.4,1.1,1,2.4L55,18.7,59.7,8c.4-.9.8-1.7,1.1-2.6A5,5,0,0,0,61,4.2a1.69,1.69,0,0,0-.3-1,1.56,1.56,0,0,0-.8-.6,6.45,6.45,0,0,0-2-.3V1.7Z"/><path class="cls-1" d="M89,17.5,88,26H66.5v-.7h.8a3.29,3.29,0,0,0,1.7-.4,1.6,1.6,0,0,0,.7-.9,8.58,8.58,0,0,0,.2-2.3V5.7a8.58,8.58,0,0,0-.2-2.3,3,3,0,0,0-.8-.8,2.32,2.32,0,0,0-1.6-.3h-.8V1.7H79.4v.7H78.3a3.29,3.29,0,0,0-1.7.4,1.6,1.6,0,0,0-.7.9,8.2,8.2,0,0,0-.2,2.2V21.4a9.86,9.86,0,0,0,.3,2.4,2,2,0,0,0,.8.8,15,15,0,0,0,2.2.2h2a7.11,7.11,0,0,0,3.2-.7A6.34,6.34,0,0,0,86.4,22a17.85,17.85,0,0,0,1.8-4.3Z"/><path class="cls-1" d="M102.9,1.4a12,12,0,0,1,13,11,6.53,6.53,0,0,1,0,1.4,13.16,13.16,0,0,1-2.7,8.1c-2.4,3.1-5.8,4.6-10.1,4.6A12.46,12.46,0,0,1,93,22.1a12.65,12.65,0,0,1-2.8-8.3,12.23,12.23,0,0,1,3.7-9A11.13,11.13,0,0,1,102.9,1.4Zm.2,1.1A5.54,5.54,0,0,0,98,5.9a18.3,18.3,0,0,0-1.4,8c0,4.1.7,7.2,2.2,9.2a5.17,5.17,0,0,0,4.3,2.1,5.61,5.61,0,0,0,3.1-.9,6.68,6.68,0,0,0,2.4-3.7,23.91,23.91,0,0,0,.9-6.6,21.92,21.92,0,0,0-.9-7.2,7.14,7.14,0,0,0-2.3-3.4,5.71,5.71,0,0,0-3.2-.9Z"/><path class="cls-1" d="M133.5,17.7l6.6-16H150v.7h-.8a3.29,3.29,0,0,0-1.7.4,1.78,1.78,0,0,0-.7.8,8.2,8.2,0,0,0-.2,2.2v16a8.58,8.58,0,0,0,.2,2.3,2,2,0,0,0,.8.8,3.17,3.17,0,0,0,1.6.4h.8V26H137.3v-.7h.8a3.29,3.29,0,0,0,1.7-.4,1.6,1.6,0,0,0,.7-.9,8.58,8.58,0,0,0,.2-2.3V3.7L131.4,26H131L121.5,4V21.1a16.2,16.2,0,0,0,.1,2.2,2.52,2.52,0,0,0,1,1.5,5,5,0,0,0,2.4.6V26h-8.3v-.7h.2a4,4,0,0,0,1.5-.3,2.59,2.59,0,0,0,1.1-.7,3.1,3.1,0,0,0,.6-1.3V5.8a9,9,0,0,0-.2-2.3,2,2,0,0,0-.8-.8,2.32,2.32,0,0,0-1.6-.3h-.8V1.7h9.9Z"/></g></g></g></g></g></g></svg>