<svg xmlns="http://www.w3.org/2000/svg" viewBox="0 0 373.58 85.47"><g id="Layer_2" data-name="Layer 2"><g id="Layer_1-2" data-name="Layer 1"><path d="M87.62,1.2V3.44a13.4,13.4,0,0,0-8,4.8q-2.55,3-7.6,14.28l-28.37,63h-2L13.37,20Q8.27,8.12,6.53,6.06T0,3.44V1.2H39.5V3.44H38.16q-5.35,0-7.29,1.34a3,3,0,0,0-1.4,2.67A8.43,8.43,0,0,0,30,10q.48,1.48,3.28,8L50.8,59,67.08,22.52a95.58,95.58,0,0,0,3.59-8.87,14,14,0,0,0,.67-3.83,5.52,5.52,0,0,0-1-3.22,5.92,5.92,0,0,0-2.85-2.12,19.15,19.15,0,0,0-6.93-1V1.2Z"/><path d="M166.36,54.67l-3.1,28.92H90.1V81.34h2.73a11.44,11.44,0,0,0,5.78-1.27A5.57,5.57,0,0,0,101,77.15q.66-1.45.66-7.66V15.29q0-6.31-.66-7.9a6.11,6.11,0,0,0-2.71-2.76,10.92,10.92,0,0,0-5.5-1.19H90.1V1.2H134V3.44h-3.58a11.43,11.43,0,0,0-5.78,1.28,5.84,5.84,0,0,0-2.49,2.92c-.44,1-.67,3.52-.67,7.65v52.5c0,4.22.25,6.9.73,8a4.86,4.86,0,0,0,2.86,2.59q1.52.54,7.35.54h6.87a23.22,23.22,0,0,0,10.93-2.31,20.42,20.42,0,0,0,7.57-7.29q3.19-5,6.05-14.7Z"/><path d="M213.75,0q19.68-.73,32,11.49t12.31,30.56a43.94,43.94,0,0,1-9.18,27.59q-12.15,15.79-34.33,15.79T180.15,70.4q-9.6-11.9-9.6-28.25,0-18.34,12.48-30.59T213.75,0Zm.73,3.89q-11.31,0-17.2,11.54-4.8,9.48-4.8,27.23,0,21.07,7.42,31.17,5.16,7,14.46,7a17.39,17.39,0,0,0,10.45-3q5.34-3.88,8.32-12.43t3-22.27q0-16.33-3-24.45T225.33,7.27A18.27,18.27,0,0,0,214.48,3.93Z"/><path d="M317.68,55.52,340,1.2h33.54V3.44h-2.67a11.51,11.51,0,0,0-5.83,1.28,5.87,5.87,0,0,0-2.43,2.86Q362,9,362,15.17V69.49q0,6.33.67,7.9a6,6,0,0,0,2.73,2.77,11.1,11.1,0,0,0,5.53,1.18h2.67v2.25h-43V81.34h2.68a11.54,11.54,0,0,0,5.83-1.27,6,6,0,0,0,2.43-2.92c.44-1,.67-3.52.67-7.66V8.43l-31.6,75.16h-1.46L277,9V67a52.09,52.09,0,0,0,.3,7.48,8.68,8.68,0,0,0,3.44,5q2.64,1.91,8.29,1.91v2.25H260.87V81.34h.85a12.86,12.86,0,0,0,5.1-.88,8.27,8.27,0,0,0,3.59-2.52,11.63,11.63,0,0,0,1.88-4.44c.08-.44.12-2.51.12-6.19V15.17q0-6.26-.67-7.81A6.06,6.06,0,0,0,269,4.63a11.1,11.1,0,0,0-5.53-1.19h-2.61V1.2h33.66Z"/></g></g></svg>