<svg xmlns="http://www.w3.org/2000/svg" viewBox="0 0 27.92 27.92"><defs><style>.cls-1{fill:#ee2f24;}</style></defs><g id="Layer_2" data-name="Layer 2"><g id="Layer_1-2" data-name="Layer 1"><path class="cls-1" d="M25.55,0H15.43L13.88,3.51,17.76,4l-1.35,3.2,5.67-.62-4.67,7.15,2.36,3.06-1.22,2.72-.18.44,7.75,7.86a2.18,2.18,0,0,1-.57.08H21.74l-3.53-3.63L16.8,22.83l-.1-.11-1.54-1.57-.36-.35,1.92-3.56-2.24-3.4L17.72,9.3l-4.78.52L15,5.75l-3.88-.69L13.42,0h-11A2.37,2.37,0,0,0,0,2.37V25.55a2.37,2.37,0,0,0,2.37,2.37H25.55a2.37,2.37,0,0,0,2.37-2.37V2.37A2.37,2.37,0,0,0,25.55,0Z"/></g></g></svg>