<svg width="201" height="201" viewBox="0 0 201 201" fill="none" xmlns="http://www.w3.org/2000/svg">
<path d="M106.04 17.2303V31.4313H103.447L97.2683 22.4933H97.1643V31.4313L94.1618 31.4313L94.1618 17.2303L96.7967 17.2303L102.926 26.1614H103.051V17.2303H106.04Z" fill="black"/>
<path d="M120.338 26.7456C120.061 28.2693 119.537 29.5132 118.766 30.4772C117.999 31.4421 117.068 32.1166 115.974 32.5006C114.886 32.881 113.725 32.9593 112.492 32.7356C111.251 32.5103 110.188 32.0261 109.303 31.2829C108.418 30.5398 107.786 29.5818 107.407 28.4089C107.028 27.2361 106.976 25.89 107.252 24.3709C107.529 22.8471 108.05 21.6029 108.817 20.638C109.584 19.6731 110.512 19.0005 111.601 18.6202C112.69 18.2353 113.856 18.1555 115.097 18.3808C116.33 18.6045 117.389 19.0879 118.273 19.831C119.163 20.5704 119.798 21.5266 120.177 22.6995C120.561 23.8732 120.614 25.2219 120.338 26.7456ZM117.343 26.202C117.522 25.215 117.525 24.3559 117.352 23.6245C117.184 22.894 116.866 22.3053 116.397 21.8585C115.929 21.4117 115.337 21.1235 114.623 20.9939C113.909 20.8643 113.254 20.9263 112.659 21.18C112.063 21.4336 111.556 21.8725 111.137 22.4966C110.723 23.1214 110.426 23.9274 110.247 24.9144C110.068 25.9014 110.063 26.7602 110.231 27.4907C110.403 28.2221 110.724 28.8112 111.193 29.258C111.661 29.7048 112.253 29.993 112.967 30.1226C113.681 30.2521 114.336 30.1901 114.931 29.9365C115.527 29.6828 116.032 29.2435 116.446 28.6186C116.865 27.9946 117.164 27.1891 117.343 26.202Z" fill="black"/>
<path d="M126.055 21.372L125.477 32.6795L125.601 32.7258L132.612 23.8328L135.728 25.0023L126.155 36.5776L122.532 35.2181L122.932 20.2001L126.055 21.372Z" fill="black"/>
<path d="M144.72 38.6216C143.926 39.951 142.998 40.9314 141.937 41.5629C140.879 42.1967 139.771 42.5012 138.612 42.4764C137.459 42.45 136.345 42.1155 135.27 41.473C134.187 40.8257 133.361 39.9988 132.794 38.9922C132.227 37.9856 131.972 36.8667 132.029 35.6354C132.086 34.4041 132.511 33.1257 133.303 31.8003C134.097 30.4709 135.023 29.4893 136.08 28.8555C137.137 28.2216 138.242 27.9179 139.395 27.9443C140.55 27.9668 141.669 28.3016 142.753 28.9489C143.828 29.5914 144.649 30.416 145.217 31.4226C145.79 32.4275 146.048 33.5457 145.991 34.777C145.938 36.0107 145.514 37.2922 144.72 38.6216ZM142.107 37.0603C142.621 36.1992 142.926 35.3959 143.021 34.6505C143.121 33.9075 143.029 33.2445 142.748 32.6615C142.466 32.0786 142.014 31.6009 141.391 31.2287C140.768 30.8565 140.133 30.6844 139.486 30.7126C138.839 30.7407 138.21 30.9734 137.599 31.4106C136.991 31.8501 136.43 32.5004 135.916 33.3616C135.401 34.2227 135.095 35.0248 134.995 35.7678C134.9 36.5132 134.993 37.1774 135.275 37.7604C135.557 38.3433 136.009 38.8209 136.632 39.1932C137.255 39.5654 137.89 39.7375 138.537 39.7093C139.184 39.6812 139.811 39.4473 140.418 39.0078C141.029 38.5706 141.592 37.9214 142.107 37.0603Z" fill="black"/>
<path d="M155.716 55.9113C155.367 55.474 155.156 54.9896 155.081 54.4582C155.009 53.9238 155.068 53.4041 155.256 52.899C155.448 52.3976 155.762 51.9725 156.199 51.6237C156.64 51.2721 157.125 51.0602 157.653 50.9881C158.187 50.9168 158.705 50.9768 159.206 51.1681C159.711 51.3566 160.138 51.6695 160.487 52.1068C160.839 52.5478 161.049 53.0336 161.117 53.5643C161.192 54.0958 161.134 54.6123 160.943 55.1137C160.758 55.6159 160.445 56.0428 160.004 56.3944C159.567 56.7432 159.081 56.9532 158.546 57.0246C158.015 57.0996 157.497 57.0429 156.992 56.8544C156.493 56.6666 156.068 56.3523 155.716 55.9113Z" fill="black"/>
<path d="M180.454 80.4194L166.948 84.8077L166.147 82.3413L172.738 73.7034L172.706 73.6045L164.206 76.3665L163.278 73.511L176.784 69.1227L177.598 71.6287L170.998 80.2182L171.037 80.3369L179.531 77.5771L180.454 80.4194Z" fill="black"/>
<path d="M175.689 96.7926C174.155 97.0005 172.81 96.8864 171.654 96.4505C170.5 96.0191 169.571 95.3426 168.868 94.4209C168.169 93.5032 167.736 92.4236 167.568 91.1822C167.399 89.9316 167.531 88.7708 167.964 87.6999C168.397 86.6289 169.113 85.7319 170.112 85.0088C171.11 84.2858 172.374 83.8207 173.904 83.6134C175.439 83.4056 176.783 83.5173 177.938 83.9487C179.093 84.3801 180.019 85.0546 180.717 85.9723C181.42 86.8894 181.856 87.9733 182.025 89.2238C182.193 90.4653 182.061 91.6215 181.628 92.6925C181.199 93.7674 180.486 94.6664 179.488 95.3894C178.49 96.117 177.224 96.5847 175.689 96.7926ZM175.281 93.7761C176.275 93.6414 177.093 93.379 177.735 92.9888C178.378 92.6032 178.839 92.1185 179.12 91.5347C179.4 90.951 179.491 90.2995 179.394 89.5803C179.296 88.8611 179.035 88.2574 178.609 87.7693C178.184 87.2811 177.61 86.9343 176.887 86.729C176.165 86.5283 175.307 86.4953 174.313 86.6299C173.319 86.7646 172.5 87.0247 171.857 87.4104C171.215 87.8006 170.754 88.2876 170.474 88.8713C170.194 89.4551 170.102 90.1065 170.2 90.8257C170.297 91.5449 170.559 92.1486 170.984 92.6368C171.409 93.125 171.983 93.4694 172.705 93.6701C173.428 93.8754 174.287 93.9108 175.281 93.7761Z" fill="black"/>
<path d="M182.567 100.569L171.634 103.514L171.628 103.646L182.252 107.566L182.103 110.891L168.136 105.363L168.31 101.498L182.716 97.2374L182.567 100.569Z" fill="black"/>
<path d="M171.929 123.651C170.419 123.307 169.2 122.727 168.272 121.913C167.342 121.104 166.71 120.144 166.376 119.034C166.044 117.929 166.018 116.766 166.297 115.545C166.578 114.315 167.109 113.274 167.891 112.424C168.673 111.573 169.659 110.985 170.848 110.659C172.036 110.333 173.383 110.342 174.888 110.685C176.398 111.03 177.618 111.607 178.547 112.416C179.477 113.226 180.107 114.183 180.438 115.287C180.774 116.393 180.801 117.561 180.521 118.791C180.242 120.013 179.711 121.049 178.929 121.899C178.151 122.755 177.167 123.346 175.978 123.672C174.789 124.003 173.439 123.996 171.929 123.651ZM172.606 120.683C173.584 120.907 174.443 120.948 175.181 120.809C175.918 120.674 176.521 120.382 176.988 119.934C177.455 119.486 177.77 118.908 177.931 118.2C178.093 117.493 178.06 116.836 177.834 116.229C177.607 115.623 177.191 115.096 176.587 114.65C175.981 114.208 175.189 113.876 174.211 113.653C173.233 113.43 172.375 113.386 171.638 113.521C170.9 113.66 170.297 113.954 169.83 114.402C169.362 114.85 169.048 115.428 168.886 116.136C168.725 116.843 168.757 117.5 168.984 118.107C169.211 118.713 169.627 119.238 170.233 119.679C170.837 120.125 171.628 120.46 172.606 120.683Z" fill="black"/>
<path d="M158.884 139.452C159.192 138.985 159.587 138.634 160.069 138.399C160.555 138.166 161.068 138.061 161.606 138.084C162.142 138.111 162.644 138.279 163.111 138.587C163.581 138.897 163.932 139.293 164.164 139.772C164.397 140.258 164.5 140.77 164.473 141.306C164.45 141.844 164.284 142.347 163.976 142.814C163.665 143.284 163.268 143.634 162.785 143.863C162.302 144.099 161.793 144.203 161.257 144.176C160.722 144.156 160.22 143.99 159.749 143.679C159.282 143.371 158.932 142.974 158.699 142.488C158.464 142.006 158.358 141.495 158.381 140.956C158.405 140.424 158.573 139.923 158.884 139.452Z" fill="black"/>
<path d="M143.22 170.553L134.872 159.064L136.97 157.54L147.222 161.139L147.307 161.078L142.053 153.847L144.482 152.082L152.829 163.571L150.697 165.12L140.489 161.497L140.388 161.571L145.637 168.796L143.22 170.553Z" fill="black"/>
<path d="M126.175 171.081C125.503 169.686 125.196 168.371 125.254 167.138C125.307 165.906 125.663 164.814 126.323 163.86C126.98 162.912 127.873 162.167 129.001 161.623C130.138 161.076 131.283 160.843 132.436 160.924C133.588 161.005 134.662 161.409 135.659 162.135C136.655 162.861 137.488 163.919 138.158 165.31C138.83 166.706 139.139 168.019 139.085 169.25C139.032 170.482 138.677 171.571 138.02 172.519C137.364 173.471 136.468 174.22 135.331 174.768C134.203 175.311 133.062 175.543 131.91 175.461C130.755 175.386 129.68 174.986 128.683 174.26C127.683 173.536 126.847 172.476 126.175 171.081ZM128.918 169.76C129.353 170.664 129.855 171.361 130.425 171.851C130.99 172.343 131.594 172.632 132.236 172.718C132.877 172.804 133.525 172.69 134.179 172.375C134.833 172.06 135.326 171.625 135.659 171.07C135.992 170.514 136.144 169.861 136.116 169.11C136.084 168.361 135.85 167.535 135.415 166.631C134.98 165.727 134.479 165.029 133.914 164.537C133.344 164.047 132.739 163.759 132.097 163.673C131.455 163.587 130.808 163.701 130.154 164.016C129.5 164.331 129.006 164.766 128.674 165.321C128.341 165.877 128.19 166.529 128.223 167.278C128.251 168.029 128.483 168.856 128.918 169.76Z" fill="black"/>
<path d="M124.709 178.788L118.53 169.301L118.403 169.336L117.958 180.652L114.749 181.537L115.69 166.546L119.42 165.516L127.924 177.901L124.709 178.788Z" fill="black"/>
<path d="M99.4693 175.804C99.3305 174.262 99.5047 172.923 99.9921 171.789C100.475 170.655 101.192 169.757 102.145 169.096C103.093 168.44 104.191 168.055 105.438 167.943C106.695 167.83 107.849 168.014 108.899 168.495C109.95 168.976 110.814 169.731 111.491 170.761C112.169 171.791 112.577 173.074 112.715 174.612C112.854 176.155 112.682 177.493 112.199 178.627C111.717 179.761 111.001 180.656 110.053 181.313C109.105 181.973 108.003 182.36 106.746 182.473C105.498 182.586 104.349 182.401 103.299 181.92C102.244 181.444 101.378 180.692 100.701 179.662C100.019 178.633 99.6081 177.347 99.4693 175.804ZM102.501 175.531C102.591 176.531 102.816 177.36 103.177 178.019C103.534 178.678 103.997 179.161 104.568 179.467C105.139 179.773 105.785 179.893 106.508 179.828C107.231 179.763 107.846 179.529 108.353 179.126C108.859 178.723 109.231 178.165 109.469 177.452C109.702 176.74 109.773 175.884 109.683 174.885C109.594 173.886 109.37 173.057 109.014 172.397C108.653 171.738 108.187 171.256 107.617 170.949C107.046 170.643 106.399 170.523 105.676 170.588C104.954 170.653 104.339 170.887 103.832 171.29C103.325 171.693 102.955 172.251 102.722 172.963C102.485 173.676 102.411 174.532 102.501 175.531Z" fill="black"/>
<path d="M80.4103 168.28C80.9495 168.429 81.4056 168.696 81.7787 169.082C82.1505 169.472 82.4086 169.927 82.553 170.447C82.6929 170.965 82.6885 171.494 82.5397 172.033C82.3896 172.576 82.1223 173.033 81.7376 173.401C81.3473 173.773 80.893 174.029 80.3748 174.169C79.8554 174.313 79.3261 174.311 78.7869 174.162C78.2433 174.012 77.7878 173.743 77.4204 173.353C77.0474 172.968 76.7909 172.515 76.651 171.997C76.5053 171.482 76.5075 170.953 76.6576 170.409C76.8064 169.87 77.076 169.415 77.4663 169.043C77.8522 168.67 78.3049 168.411 78.8243 168.267C79.338 168.126 79.8666 168.13 80.4103 168.28Z" fill="black"/>
<path d="M45.9914 162.993L54.3385 151.505L56.4366 153.029L56.1813 163.891L56.2654 163.952L61.519 156.721L63.9481 158.486L55.601 169.975L53.4693 168.426L53.7598 157.598L53.6588 157.525L48.4092 164.75L45.9914 162.993Z" fill="black"/>
<path d="M40.2222 146.946C41.3415 145.876 42.4967 145.178 43.6876 144.852C44.8753 144.522 46.0245 144.523 47.1352 144.855C48.2394 145.187 49.2244 145.806 50.0901 146.712C50.9623 147.624 51.5378 148.641 51.8167 149.762C52.0956 150.883 52.0437 152.029 51.661 153.201C51.2783 154.373 50.529 155.492 49.413 156.559C48.2937 157.629 47.1402 158.329 45.9525 158.659C44.7647 158.989 43.6188 158.988 42.5146 158.655C41.4071 158.327 40.4172 157.706 39.5451 156.794C38.6794 155.888 38.1071 154.875 37.8281 153.754C37.5427 152.633 37.5913 151.486 37.974 150.314C38.3535 149.139 39.1029 148.017 40.2222 146.946ZM42.3258 149.147C41.6008 149.84 41.0932 150.533 40.803 151.226C40.5096 151.916 40.4211 152.579 40.5376 153.216C40.6541 153.853 40.9631 154.434 41.4647 154.959C41.9662 155.483 42.5325 155.818 43.1635 155.963C43.7946 156.108 44.4629 156.051 45.1684 155.792C45.8707 155.53 46.5843 155.052 47.3094 154.359C48.0344 153.666 48.5437 152.974 48.8371 152.284C49.1273 151.591 49.2141 150.926 49.0976 150.289C48.9811 149.652 48.6721 149.072 48.1706 148.547C47.669 148.022 47.1027 147.688 46.4717 147.543C45.8406 147.398 45.174 147.456 44.4717 147.719C43.7662 147.977 43.0509 148.453 42.3258 149.147Z" fill="black"/>
<path d="M32.4387 147.933L39.5523 139.125L39.4797 139.015L28.5805 142.088L26.7469 139.311L41.2956 135.573L43.4271 138.802L34.2761 150.717L32.4387 147.933Z" fill="black"/>
<path d="M27.4773 123.007C28.9013 122.398 30.2281 122.151 31.4577 122.264C32.6856 122.372 33.7611 122.777 34.6842 123.478C35.6013 124.177 36.306 125.103 36.7984 126.255C37.2944 127.415 37.476 128.569 37.3431 129.717C37.2103 130.865 36.7589 131.92 35.9889 132.882C35.2189 133.845 34.1241 134.63 32.7043 135.236C31.2803 135.845 29.9544 136.095 28.7266 135.986C27.4987 135.878 26.4263 135.474 25.5092 134.775C24.5879 134.078 23.8792 133.149 23.3832 131.989C22.8908 130.837 22.7111 129.687 22.8439 128.539C22.9707 127.389 23.419 126.333 24.189 125.37C24.9572 124.403 26.0533 123.616 27.4773 123.007ZM28.6737 125.806C27.7513 126.2 27.0324 126.671 26.5172 127.218C26.0001 127.761 25.6842 128.351 25.5695 128.988C25.4547 129.625 25.54 130.278 25.8252 130.945C26.1105 131.612 26.523 132.125 27.0629 132.482C27.6028 132.84 28.2484 133.021 28.9999 133.027C29.7495 133.028 30.5855 132.832 31.5079 132.437C32.4303 132.043 33.1501 131.575 33.6671 131.032C34.1824 130.485 34.4974 129.893 34.6121 129.255C34.7269 128.618 34.6416 127.966 34.3564 127.299C34.0711 126.631 33.6586 126.119 33.1187 125.761C32.5788 125.404 31.9341 125.225 31.1844 125.223C30.433 125.218 29.5961 125.412 28.6737 125.806Z" fill="black"/>
<path d="M28.7438 102.556C28.7688 103.115 28.6555 103.631 28.4038 104.105C28.1475 104.579 27.7946 104.965 27.3452 105.263C26.8957 105.556 26.3915 105.716 25.8327 105.741C25.2693 105.766 24.7529 105.653 24.2835 105.401C23.8092 105.144 23.4255 104.791 23.1323 104.342C22.8345 103.892 22.673 103.388 22.6479 102.83C22.6226 102.266 22.7383 101.75 22.9948 101.28C23.2465 100.806 23.5972 100.422 24.0467 100.129C24.4915 99.8316 24.9956 99.6701 25.559 99.6448C26.1177 99.6197 26.6343 99.7353 27.1085 99.9917C27.5825 100.243 27.9685 100.594 28.2663 101.043C28.5593 101.488 28.7184 101.992 28.7438 102.556Z" fill="black"/>
<path d="M23.1359 68.1879L36.6418 72.5762L35.8404 75.0426L25.4307 78.1565L25.3985 78.2554L33.8991 81.0174L32.9713 83.8729L19.4654 79.4846L20.2796 76.9786L30.6677 73.9087L30.7063 73.79L22.2124 71.0302L23.1359 68.1879Z" fill="black"/>
<path d="M36.6146 57.7423C37.9783 58.4762 38.9994 59.359 39.6778 60.3907C40.3584 61.4184 40.7123 62.5118 40.7396 63.6708C40.7649 64.8236 40.4808 65.9516 39.8871 67.0548C39.2891 68.1661 38.5 69.0276 37.5199 69.6393C36.5398 70.251 35.4334 70.5559 34.2008 70.5541C32.9681 70.5522 31.672 70.1855 30.3124 69.4538C28.9487 68.72 27.9265 67.8392 27.2459 66.8115C26.5653 65.7838 26.2123 64.6936 26.187 63.5408C26.1576 62.3858 26.4419 61.2527 27.0399 60.1414C27.6335 59.0382 28.4204 58.1808 29.4005 57.569C30.3788 56.9511 31.4842 56.643 32.7168 56.6449C33.9517 56.6427 35.2509 57.0085 36.6146 57.7423ZM35.1721 60.4229C34.2888 59.9475 33.4727 59.679 32.7237 59.6172C31.977 59.5513 31.3188 59.6722 30.749 59.9798C30.1793 60.2874 29.7224 60.7607 29.3785 61.3998C29.0346 62.039 28.8912 62.681 28.9484 63.3259C29.0055 63.9709 29.2662 64.5888 29.7303 65.1798C30.1967 65.7668 30.8715 66.2979 31.7549 66.7732C32.6382 67.2486 33.4533 67.5192 34.2 67.5851C34.9489 67.6469 35.6083 67.524 36.178 67.2163C36.7477 66.9087 37.2046 66.4354 37.5485 65.7963C37.8924 65.1572 38.0358 64.5152 37.9786 63.8702C37.9215 63.2253 37.6597 62.6093 37.1934 62.0224C36.7292 61.4314 36.0555 60.8982 35.1721 60.4229Z" fill="black"/>
<path d="M33.2706 50.6446L43.8461 54.6881L43.9282 54.5851L37.6371 45.1691L39.7123 42.5669L47.7628 55.2484L45.3504 58.2735L31.1911 53.2522L33.2706 50.6446Z" fill="black"/>
<path d="M55.4437 38.2235C56.4626 39.3897 57.1084 40.575 57.381 41.7794C57.6571 42.9807 57.6043 44.1287 57.2225 45.2234C56.8412 46.3116 56.1788 47.2678 55.2354 48.092C54.285 48.9223 53.2435 49.4516 52.111 49.68C50.9784 49.9083 49.8354 49.805 48.6821 49.3702C47.5287 48.9353 46.4441 48.1365 45.4282 46.9738C44.4093 45.8076 43.7618 44.6238 43.4857 43.4225C43.2096 42.2212 43.2622 41.0764 43.6436 39.9882C44.0219 38.8966 44.6862 37.9356 45.6366 37.1053C46.58 36.281 47.618 35.7548 48.7505 35.5264C49.8835 35.2916 51.0267 35.3916 52.1801 35.8265C53.337 36.2583 54.4248 37.0573 55.4437 38.2235ZM53.1513 40.2263C52.4913 39.4709 51.8216 38.9327 51.1422 38.6117C50.4662 38.2876 49.8074 38.1695 49.1659 38.2573C48.5245 38.3451 47.9304 38.6277 47.3839 39.1052C46.8373 39.5827 46.4775 40.1334 46.3044 40.7573C46.1313 41.3813 46.1582 42.0514 46.3851 42.7678C46.6154 43.4812 47.0606 44.2155 47.7206 44.971C48.3806 45.7264 49.0486 46.2661 49.7246 46.5902C50.404 46.9112 51.0645 47.0278 51.706 46.94C52.3475 46.8522 52.9415 46.5696 53.4881 46.092C54.0346 45.6145 54.3945 45.0638 54.5676 44.4399C54.7407 43.816 54.712 43.1474 54.4817 42.434C54.2548 41.7176 53.8113 40.9817 53.1513 40.2263Z" fill="black"/>
<path d="M75.2853 33.1082C74.7617 33.3047 74.2355 33.3565 73.7069 33.2636C73.1766 33.1663 72.7004 32.9501 72.2783 32.6147C71.8606 32.2778 71.5534 31.8474 71.3569 31.3238C71.1587 30.7958 71.1069 30.2696 71.2014 29.7453C71.2987 29.215 71.5158 28.741 71.8527 28.3233C72.1881 27.9011 72.6176 27.5918 73.1413 27.3953C73.6693 27.1971 74.1962 27.1475 74.7222 27.2463C75.2508 27.3393 75.724 27.5542 76.1418 27.8912C76.5622 28.2222 76.8716 28.6517 77.0697 29.1797C77.2663 29.7034 77.3159 30.2303 77.2187 30.7606C77.1258 31.2892 76.9116 31.7646 76.5763 32.1867C76.2437 32.6028 75.8133 32.91 75.2853 33.1082Z" fill="black"/>
</svg>
