<svg width="86" height="25" viewBox="0 0 86 25" fill="none" xmlns="http://www.w3.org/2000/svg">
<path d="M6.77732 12.1154L4.845 8.73383H4.68397L5.19926 12.1476V23.8703H0.690514V1.16558H4.13648L13.4438 13.1782L15.2795 16.4631H15.4728L14.9575 13.146V1.32661H19.4662V24.0314H16.0202L6.77732 12.1154ZM22.8442 12.5985C22.8442 10.752 23.0804 9.09883 23.5528 7.63885C24.0251 6.17888 24.7014 4.95508 25.5817 3.96745C26.4834 2.95835 27.5784 2.19615 28.8666 1.68087C30.1549 1.14411 31.6148 0.875735 33.2466 0.875735C34.9857 0.875735 36.4993 1.16558 37.7875 1.74528C39.0972 2.3035 40.1814 3.0979 41.0403 4.12847C41.9205 5.15904 42.5754 6.39358 43.0048 7.83208C43.4556 9.27059 43.6811 10.8594 43.6811 12.5985C43.6811 14.4449 43.4342 16.0981 42.9404 17.5581C42.468 19.0181 41.781 20.2526 40.8792 21.2617C39.9775 22.2493 38.8825 23.0115 37.5943 23.5483C36.3061 24.0636 34.8568 24.3212 33.2466 24.3212C31.5075 24.3212 29.9831 24.0421 28.6734 23.4839C27.3852 22.9042 26.301 22.099 25.4207 21.0685C24.5619 20.0379 23.9178 18.8034 23.4884 17.3649C23.0589 15.9264 22.8442 14.3376 22.8442 12.5985ZM27.9005 12.5985C27.9005 13.7149 28.0078 14.7348 28.2225 15.658C28.4372 16.5812 28.7593 17.3756 29.1887 18.0412C29.6181 18.7067 30.1656 19.222 30.8312 19.587C31.5182 19.952 32.3233 20.1345 33.2466 20.1345C34.9427 20.1345 36.2631 19.5548 37.2078 18.3954C38.1525 17.236 38.6249 15.3037 38.6249 12.5985C38.6249 11.525 38.5282 10.5266 38.335 9.60338C38.1418 8.68016 37.8197 7.88576 37.3688 7.22018C36.9394 6.53314 36.3812 6.00712 35.6942 5.64212C35.0286 5.25566 34.2127 5.06243 33.2466 5.06243C31.5719 5.06243 30.2622 5.66359 29.3175 6.86592C28.3728 8.06826 27.9005 9.9791 27.9005 12.5985ZM53.779 14.3376L54.4231 18.17H54.5841L55.2926 14.3054L59.9946 1.32661H65.0186L55.9045 24.0314H52.4907L43.3122 1.32661H48.8515L53.779 14.3376ZM64.6734 12.5985C64.6734 10.752 64.9096 9.09883 65.3819 7.63885C65.8543 6.17888 66.5306 4.95508 67.4109 3.96745C68.3126 2.95835 69.4076 2.19615 70.6958 1.68087C71.984 1.14411 73.444 0.875735 75.0757 0.875735C76.8148 0.875735 78.3285 1.16558 79.6167 1.74528C80.9264 2.3035 82.0106 3.0979 82.8694 4.12847C83.7497 5.15904 84.4045 6.39358 84.8339 7.83208C85.2848 9.27059 85.5103 10.8594 85.5103 12.5985C85.5103 14.4449 85.2633 16.0981 84.7695 17.5581C84.2972 19.0181 83.6101 20.2526 82.7084 21.2617C81.8066 22.2493 80.7117 23.0115 79.4234 23.5483C78.1352 24.0636 76.686 24.3212 75.0757 24.3212C73.3366 24.3212 71.8123 24.0421 70.5026 23.4839C69.2144 22.9042 68.1301 22.099 67.2498 21.0685C66.391 20.0379 65.7469 18.8034 65.3175 17.3649C64.8881 15.9264 64.6734 14.3376 64.6734 12.5985ZM69.7296 12.5985C69.7296 13.7149 69.837 14.7348 70.0517 15.658C70.2664 16.5812 70.5885 17.3756 71.0179 18.0412C71.4473 18.7067 71.9948 19.222 72.6603 19.587C73.3474 19.952 74.1525 20.1345 75.0757 20.1345C76.7719 20.1345 78.0923 19.5548 79.037 18.3954C79.9817 17.236 80.454 15.3037 80.454 12.5985C80.454 11.525 80.3574 10.5266 80.1642 9.60338C79.9709 8.68016 79.6489 7.88576 79.198 7.22018C78.7686 6.53314 78.2104 6.00712 77.5233 5.64212C76.8578 5.25566 76.0419 5.06243 75.0757 5.06243C73.4011 5.06243 72.0914 5.66359 71.1467 6.86592C70.202 8.06826 69.7296 9.9791 69.7296 12.5985Z" fill="black"/>
</svg>
